<svg width="14" height="15" viewBox="0 0 14 15" fill="none" xmlns="http://www.w3.org/2000/svg">
<path d="M7.33335 9.50142V10.8947C6.72997 10.6814 6.0842 10.616 5.45029 10.7039C4.81638 10.7919 4.21282 11.0307 3.69031 11.4002C3.1678 11.7698 2.74158 12.2593 2.44746 12.8277C2.15334 13.3961 1.9999 14.0268 2.00002 14.6667L0.666687 14.6661C0.66648 13.852 0.852635 13.0487 1.21089 12.3177C1.56914 11.5867 2.08998 10.9474 2.7335 10.4488C3.37702 9.95017 4.12614 9.6055 4.92346 9.44118C5.72077 9.27685 6.54513 9.29723 7.33335 9.50075V9.50142ZM6.00002 8.66675C3.79002 8.66675 2.00002 6.87675 2.00002 4.66675C2.00002 2.45675 3.79002 0.666748 6.00002 0.666748C8.21002 0.666748 10 2.45675 10 4.66675C10 6.87675 8.21002 8.66675 6.00002 8.66675ZM6.00002 7.33342C7.47335 7.33342 8.66669 6.14008 8.66669 4.66675C8.66669 3.19341 7.47335 2.00008 6.00002 2.00008C4.52669 2.00008 3.33335 3.19341 3.33335 4.66675C3.33335 6.14008 4.52669 7.33342 6.00002 7.33342ZM10 11.3334V9.33342H11.3334V11.3334H13.3334V12.6667H11.3334V14.6667H10V12.6667H8.00002V11.3334H10Z" fill="white"/>
</svg>
